# xmcd CD database file
#
# Track frame offsets:
#	150
#	32865
#	66440
#	99000
#	123330
#	146607
#	185625
#	219770
#	241965
#	259835
#
# Disc length: 3620 seconds
#
# Revision: 0
# Processed by: cddbd v1.4PL0 Copyright (c) Steve Scherf et al.
# Submitted via: CDex 1.50Beta5
#
DISCID=8c0e220a
DTITLE=Toshiko Akiyoshi - Toshiko Plays Toshiko
DYEAR=1996
DGENRE=Jazz
TTITLE0=Long Yellow Road
TTITLE1=Memory
TTITLE2=Kogun
TTITLE3=Interlude
TTITLE4=Studio J
TTITLE5=Farewell to Mingus
TTITLE6=Deracinated Flower
TTITLE7=The First Night
TTITLE8=Jammin' at Carnegie
TTITLE9=Time Stream
EXTD=YEAR: 1996
EXTT0=
EXTT1=
EXTT2=
EXTT3=
EXTT4=
EXTT5=
EXTT6=
EXTT7=
EXTT8=
EXTT9=
PLAYORDER=
